PathFileType	4	(X/Y/Z)	Kaydara																																																																																																																									
DataRate	CameraRate	NumFrames	NumMarkers	Units	OrigDataRate	OrigDataStartFrame	OrigNumFrames																																																																																																																					
30	30	4	41	mm	30	98	192																																																																																																																					
Frame#	Time	PAIB_LFHD			PAIB_RFHD			PAIB_LBHD			PAIB_RBHD			PAIB_LFTShould			PAIB_RFTShould			PAIB_LRRShould			PAIB_RRRShould			PAIB_T10			PAIB_STRN			PAIB_TRUN			PAIB_LSHO			PAIB_LUPA			PAIB_LELB			PAIB_LFRM			PAIB_LWRA			PAIB_LWRB			PAIB_LFIN			PAIB_RSHO			PAIB_RUPA			PAIB_RELB			PAIB_RFRM			PAIB_RWRA			PAIB_RWRB			PAIB_RFIN			PAIB_LFWT			PAIB_RFWT			PAIB_LBWT			PAIB_RBWT			PAIB_LTHI			PAIB_LKNE			PAIB_LSHN			PAIB_LANK			PAIB_LHEE			PAIB_LTOE			PAIB_RTHI			PAIB_RKNE			PAIB_RSHN			PAIB_RANK			PAIB_RHEE			PAIB_RTOE		
		X1	Y1	Z1	X2	Y2	Z2	X3	Y3	Z3	X4	Y4	Z4	X5	Y5	Z5	X6	Y6	Z6	X7	Y7	Z7	X8	Y8	Z8	X9	Y9	Z9	X10	Y10	Z10	X11	Y11	Z11	X12	Y12	Z12	X13	Y13	Z13	X14	Y14	Z14	X15	Y15	Z15	X16	Y16	Z16	X17	Y17	Z17	X18	Y18	Z18	X19	Y19	Z19	X20	Y20	Z20	X21	Y21	Z21	X22	Y22	Z22	X23	Y23	Z23	X24	Y24	Z24	X25	Y25	Z25	X26	Y26	Z26	X27	Y27	Z27	X28	Y28	Z28	X29	Y29	Z29	X30	Y30	Z30	X31	Y31	Z31	X32	Y32	Z32	X33	Y33	Z33	X34	Y34	Z34	X35	Y35	Z35	X36	Y36	Z36	X37	Y37	Z37	X38	Y38	Z38	X39	Y39	Z39	X40	Y40	Z40	X41	Y41	Z41
																																																																																																																												
97	3.23	226.22362	1654.71619	-1128.34579	41.67891	1651.26968	-1142.53296	244.0102	1628.2663	-1253.98636	41.08703	1635.75851	-1257.14378	202.7323	1388.62213	-1141.64688	81.21837	1381.80023	-1152.11693	221.60381	1454.49341	-1285.56839	67.75637	1451.9101	-1286.64215	150.79691	1295.11017	-1369.77814	149.50792	1319.59229	-1109.53186	151.49422	1217.70302	-1088.72597	336.13277	1401.41113	-1210.60349	402.77271	1180.89539	-1196.65176	428.2954	1094.54689	-1225.22049	439.14116	993.5994	-1150.19432	369.17305	913.95508	-1036.38344	411.90643	873.80981	-1092.70462	417.84134	859.9054	-1020.60013	-43.50818	1386.00739	-1219.35562	-103.39526	1225.44601	-1297.82364	-126.23199	1110.35873	-1326.1142	-150.29655	970.9584	-1311.85898	-105.4588	855.34103	-1218.00674	-166.55712	848.33328	-1276.40198	-166.21225	804.91135	-1215.38406	267.69161	931.24954	-1144.38332	35.35238	941.0939	-1127.7684	187.41287	982.41425	-1356.12671	44.09506	975.75607	-1345.30182	235.5809	745.11978	-1388.37006	263.96317	494.40987	-1351.92749	223.3625	294.91428	-1386.37741	208.17751	127.39178	-1506.14044	151.26463	126.90962	-1553.50555	195.25633	67.74214	-1342.14188	-12.50969	665.63896	-1243.81737	-15.67482	478.78731	-1061.90086	37.23214	325.89821	-961.42174	5.9392	120.39665	-942.31644	69.44163	92.56188	-991.83365	27.94319	147.97129	-775.17014
98	3.263	223.70447	1647.62207	-1092.91061	39.27631	1644.40018	-1107.54799	241.78637	1619.96002	-1218.26012	38.92217	1627.91565	-1222.09862	200.37418	1380.55618	-1104.68361	78.67825	1373.46588	-1115.63637	219.14841	1446.66077	-1248.76984	65.1297	1443.41522	-1250.50812	148.68309	1286.7395	-1332.51907	147.23009	1311.40121	-1072.5605	149.71077	1209.55101	-1051.92871	333.28651	1393.23532	-1173.23364	400.28881	1172.99828	-1158.38715	427.03018	1087.05872	-1186.46545	437.52731	986.47079	-1111.3533	366.49174	906.48376	-998.70407	410.57167	866.61926	-1054.15489	415.23727	852.91946	-982.04979	-46.01099	1376.97754	-1183.63747	-104.87471	1215.81627	-1262.11014	-127.60328	1100.65033	-1290.07339	-150.93766	961.18019	-1274.55376	-105.88396	846.56708	-1179.76616	-166.88732	838.86955	-1238.20457	-166.57644	796.05698	-1176.78291	267.45218	924.16634	-1106.34483	34.99447	933.76625	-1089.57123	183.60744	974.75082	-1317.9007	40.50818	967.57103	-1307.8508	229.41113	742.63786	-1351.96442	263.3132	492.89585	-1326.8689	224.10681	294.36213	-1372.15118	207.65871	133.7679	-1501.12793	150.32706	135.51348	-1548.02246	195.97866	67.45933	-1341.51566	-15.88864	657.90649	-1201.21643	-13.60924	472.09763	-1020.45784	41.61036	321.30184	-917.05238	13.33229	116.94725	-896.26068	77.08558	87.68411	-945.95062	37.93513	147.41582	-730.90904
99	3.297	220.7509	1642.12006	-1056.78452	36.35896	1639.57458	-1071.33179	238.58437	1613.48419	-1181.94839	35.80826	1622.28027	-1185.86967	196.70523	1375.33813	-1067.17621	74.93403	1368.12454	-1078.02147	215.33611	1440.51682	-1212.01218	61.27984	1436.81229	-1213.41576	145.13189	1279.81453	-1294.59198	143.40598	1306.48666	-1034.2437	145.63296	1204.47151	-1013.16322	329.40948	1387.72415	-1136.04736	396.23592	1167.69325	-1120.09117	423.85479	1082.13074	-1148.4845	435.2953	981.03722	-1074.61319	364.26899	898.14415	-964.09721	409.6909	860.07034	-1019.19785	413.71876	845.35812	-947.30888	-49.78933	1370.55649	-1146.01006	-107.679	1208.23601	-1223.13728	-129.6017	1092.74796	-1250.36369	-152.35455	953.46695	-1233.95088	-106.62388	839.55391	-1138.57475	-167.90556	831.41457	-1196.63612	-167.12296	788.92586	-1135.00702	264.24299	917.78847	-1065.50522	32.16406	929.33945	-1048.45322	180.34559	969.11369	-1276.79863	37.62563	961.71471	-1267.00905	224.38086	741.01349	-1315.0679	262.4156	491.12835	-1297.28149	224.25894	294.38883	-1354.65027	210.00734	142.67797	-1494.20212	153.33385	147.40631	-1541.48071	196.95061	67.18057	-1340.81985	-16.38674	655.23941	-1152.0977	-7.30044	471.39961	-968.56209	50.11456	308.9501	-881.93359	20.69118	101.23483	-882.67685	83.38643	79.28145	-932.58408	41.26361	119.5886	-716.91689
100	3.33	217.35865	1640.75333	-1020.08469	32.81091	1639.2337	-1033.77892	234.40205	1611.62933	-1145.30678	31.6414	1621.67328	-1148.32848	192.05631	1374.14749	-1027.97997	69.86927	1366.63834	-1038.99963	210.7382	1437.7565	-1174.32594	56.37357	1433.21899	-1175.49454	140.58017	1275.43114	-1253.86185	138.40904	1305.82962	-994.01474	140.53154	1204.09378	-971.4119	324.84306	1385.24994	-1097.62894	391.9017	1164.83582	-1082.97195	419.06166	1079.50668	-1111.83105	432.44179	977.12372	-1040.64247	363.44894	890.39185	-931.9162	408.96935	854.64386	-988.20114	413.69053	837.96295	-916.82793	-54.4825	1367.40875	-1107.45346	-111.69352	1203.30765	-1182.1537	-132.51737	1087.12875	-1207.51266	-154.45847	948.06076	-1190.03662	-107.67756	835.03738	-1094.35875	-169.4692	826.53488	-1151.79214	-167.83983	784.18503	-1090.08461	260.77799	914.15115	-1022.77512	29.19911	929.16611	-1005.01877	176.11629	968.10379	-1234.09805	32.39468	961.68625	-1223.48816	220.27351	741.83067	-1275.7029	260.92993	491.54572	-1263.24265	224.81045	297.39288	-1333.21426	213.45058	156.4406	-1483.71536	157.44845	164.83152	-1531.15936	198.08756	66.87733	-1339.4249	-15.30222	655.52238	-1105.9481	-6.73915	472.76329	-925.08453	55.636	306.32544	-846.28372	24.85141	96.48258	-870.50438	84.91549	84.04178	-914.19304	42.41207	93.51686	-687.60727
